<?xml version="1.0" encoding="utf-8"?>
<!-- Generator: Adobe Illustrator 24.3.0, SVG Export Plug-In . SVG Version: 6.00 Build 0)  -->
<svg version="1.1" id="Bold" xmlns="http://www.w3.org/2000/svg" xmlns:xlink="http://www.w3.org/1999/xlink" x="0px" y="0px"
	 viewBox="0 0 640 640" style="enable-background:new 0 0 640 640;" xml:space="preserve">
<style type="text/css">
	.st0{fill:#FF574D;}
	.st1{fill:#FFFFFF;}
</style>
<path class="st0" d="M600,640H40c-22.1,0-40-17.9-40-40V40C0,17.9,17.9,0,40,0h560c22.1,0,40,17.9,40,40v560
	C640,622.1,622.1,640,600,640z"/>
<path class="st1" d="M340.8,89.3c-78.5,0-142.6,34.5-188.4,92.9c7.1-4.5-1.4-1.2,18-10.8c6.9-2.6,13.9-3.4,20.8-2
	c33.2,6.6,50.5,59.6,38.6,118.5c-22.7,112.4-114.6,130.3-123.5,26.2v-0.1c0.6,36.2,3.7,67.7,23.8,108.1l-0.6-1.3
	c5.2,10.7-22,13.8-14.8,35.8l0-0.1c0.6,1.5,0.6,2,1.5,3.7l-0.1-0.1l1.2-0.9l5.3-4c6.4-4.8,13.5,4.8,7.3,9.5l-6.5,4.9
	c24.1,26.6,27.3,40.7,43.4,40.7c5,0,9.6-1.7,13.2-4.6l0,0.1c2.4-1,8.2-9.8,14.6-4.8h0c42.7,33.8,96.6,51.5,150.9,49.8h-0.3
	c48.3-1.2,92.8-16.9,129.3-42.9l-0.7,0.5c2.7-1.9,6.4-1.7,8.8,0.6c2.3,1.7,7.2,9.2,18.2,9.2c4.8,0,9.3-1.6,12.9-4.4l0,0
	c-2.3-2.1-7.2-6.7-4.9-4.6c-5.4-5.5,2.5-13.6,8.3-8.7l5.2,4.8c24.4-27.4,34.8-31,34.8-44.6c0-17.4-19.4-19.2-13.8-29l0,0
	c26.8-47,34.9-102.6,25.2-153.9l0.2,1.4c6.9-6.3,19.7-18.8,24.7-29.5c5.3-11.5,6.7-23.3-7.5-18.1c-11,4-19.4,6.6-29.7,4.3
	C521.9,150.3,437.8,89.9,340.8,89.3L340.8,89.3L340.8,89.3z M95.4,188.5c-21,0.4-34,22.4-24.9,40.5l-0.1-0.1
	c-15.2,0.6-27.3,12.9-27.3,28.1c0,23,26.3,35.9,44.8,23l-0.1,0.1c4.1-2.8,7.1-6.6,9.1-10.8c4.3,7.8,10.6,14.3,18,18.8
	c-0.1,4.4,0,8.9,0.4,14.2l0-0.5c6.8,80.7,78,66.4,95.5-20.2c9.2-45.5-4.2-86.5-29.9-91.6c-25.4-5-46.9,25.4-56.3,49.4
	c-3.4-0.7-5.8-3.2-7.9-3.6c16.7-17.8,4-47.2-20.8-47.2C95.7,188.5,95.5,188.5,95.4,188.5L95.4,188.5z M161.4,216.9
	c22.9,0,28.2,34.9,23.2,59.9c-11.1,55.2-56.6,66.1-62,14.9c14.1,5.4,29.6,3.9,39.2-8.9c8-10.6,1.9-40.1-8.6-43.9
	c-8.2-3-13.1,0.6-20.4,1.2C138.7,229.2,149.1,217,161.4,216.9L161.4,216.9z"/>
</svg>
